<?xml version="1.0" standalone="no"?>
<!DOCTYPE svg PUBLIC "-//W3C//DTD SVG 20010904//EN"
 "http://www.w3.org/TR/2001/REC-SVG-20010904/DTD/svg10.dtd">
<svg version="1.0" xmlns="http://www.w3.org/2000/svg"
 width="1034.000000pt" height="921.000000pt" viewBox="0 0 1034.000000 921.000000"
 preserveAspectRatio="xMidYMid meet">

<g transform="translate(0.000000,921.000000) scale(0.100000,-0.100000)"
fill="#000000" stroke="none">
<path d="M4265 6825 c-5 -2 -22 -6 -37 -9 -16 -4 -28 -13 -28 -21 0 -8 45
-189 101 -402 304 -1173 285 -1094 266 -1108 -15 -10 -10 -32 43 -217 l59
-205 25 -514 c32 -625 40 -755 66 -1069 11 -134 20 -250 20 -257 0 -6 12 -13
28 -15 19 -2 28 -9 30 -24 3 -20 -2 -22 -70 -25 -66 -4 -79 -8 -123 -40 -37
-26 -59 -52 -84 -102 -30 -58 -34 -76 -35 -144 -2 -136 56 -242 158 -289 64
-30 108 -30 171 0 89 41 137 113 159 241 l12 69 95 12 c52 7 96 10 99 7 3 -2
14 -34 26 -71 22 -74 12 -70 125 -56 l56 7 5 -47 c8 -68 46 -112 115 -132 51
-15 65 -15 172 0 64 9 157 21 206 26 122 15 216 44 250 78 27 27 27 28 22 118
-7 104 -14 96 91 110 30 4 56 12 58 18 3 7 -7 55 -21 107 -14 52 -25 101 -25
111 0 13 103 100 131 110 8 3 -37 196 -67 289 -9 27 -22 49 -32 51 -13 4 -22
24 -31 72 l-14 68 -55 -4 -55 -3 -20 84 -19 85 40 35 41 36 -14 50 c-7 28 -20
75 -28 105 -47 175 -61 212 -82 220 -15 6 -27 26 -39 64 l-18 55 -51 3 -52 3
-19 89 -20 89 34 26 c83 64 80 37 25 230 -26 94 -53 175 -59 180 -6 5 -29 11
-51 13 l-39 3 -32 141 c-40 183 -36 174 -82 174 l-38 0 -88 298 c-48 163 -103
349 -121 412 -47 158 -169 571 -210 709 -18 63 -38 117 -44 121 -6 3 -199 12
-429 19 -229 6 -433 14 -452 16 -19 2 -39 2 -45 0z m1 -44 c-10 -16 -36 -13
-36 3 0 17 21 27 34 16 4 -5 5 -13 2 -19z m682 2 c142 -4 225 -10 231 -17 8
-9 71 -213 126 -406 7 -25 25 -85 40 -135 15 -49 42 -144 61 -210 19 -66 57
-192 84 -280 98 -325 141 -478 133 -486 -4 -4 -177 -12 -383 -18 -409 -13
-424 -14 -477 -36 -20 -9 -40 -12 -44 -8 -4 5 -24 69 -43 143 -20 74 -49 185
-66 245 -16 61 -77 292 -135 515 -59 223 -122 461 -140 530 -19 69 -37 138
-41 154 l-7 29 219 -6 c120 -4 319 -10 442 -14z m769 -1565 c10 -13 63 -249
63 -280 0 -24 -21 -27 -225 -30 l-180 -3 -18 85 c-31 149 -40 210 -33 218 4 4
83 10 174 13 92 3 177 6 188 7 12 1 26 -4 31 -10z m-411 -73 c7 -33 20 -99 30
-148 11 -54 14 -90 8 -96 -5 -5 -97 -14 -204 -20 -107 -7 -204 -13 -215 -14
-18 -2 -24 15 -57 143 -21 80 -36 154 -35 165 2 19 12 20 132 26 72 3 175 5
230 5 l99 -1 12 -60z m-497 -2 c5 -21 17 -67 27 -103 28 -108 38 -159 32 -165
-3 -3 -21 -8 -40 -12 l-35 -5 -12 63 c-41 223 -42 231 -30 245 22 27 48 16 58
-23z m1080 -260 c19 -36 74 -252 68 -267 -4 -10 -18 -16 -37 -16 -38 0 -41 8
-76 164 -21 97 -23 120 -12 127 21 14 47 10 57 -8z m-87 -28 c17 -62 48 -210
48 -231 0 -21 -6 -22 -177 -33 -98 -7 -188 -14 -200 -17 -12 -2 -25 0 -28 6
-15 24 -62 281 -53 286 13 8 232 22 327 20 74 -1 75 -1 83 -31z m-438 -2 c11
-40 57 -275 54 -278 -10 -9 -400 -37 -407 -29 -13 13 -91 256 -91 280 0 21 6
22 173 31 271 15 265 15 271 -4z m-534 -559 c0 -15 153 -560 184 -654 19 -58
32 -108 30 -112 -6 -9 -174 2 -195 13 -14 7 -17 48 -23 311 -3 167 -9 336 -13
376 -4 51 -2 72 6 72 6 0 11 -3 11 -6z m1211 -69 c32 -91 31 -91 -68 -99 -49
-3 -115 -9 -149 -12 l-60 -6 -22 68 c-12 37 -19 70 -16 73 8 8 201 29 253 27
44 -1 45 -2 62 -51z m-322 -41 c12 -36 20 -69 16 -72 -7 -8 -245 -30 -260 -25
-14 5 -47 125 -37 135 8 8 141 25 213 27 l45 1 23 -66z m-297 -9 c24 -71 23
-94 -4 -99 -13 -3 -83 -10 -157 -16 -105 -9 -135 -9 -141 0 -11 18 -34 130
-28 136 6 5 272 33 298 30 9 -1 22 -23 32 -51z m-343 -39 c15 -62 15 -63 -25
-71 -43 -8 -49 -2 -58 47 -6 33 -4 38 21 52 42 23 50 20 62 -28z m1031 -118
c68 -198 70 -207 52 -217 -18 -9 -280 -36 -286 -30 -12 13 -97 301 -92 307 6
6 183 26 268 31 24 1 28 -5 58 -91z m-308 -91 c27 -81 46 -151 44 -156 -3 -4
-34 -11 -68 -15 -35 -3 -92 -10 -128 -15 -46 -6 -68 -5 -76 3 -16 15 -95 299
-86 307 8 9 181 27 231 25 l35 -1 48 -148z m-342 116 c0 -5 20 -74 44 -156 26
-89 40 -150 34 -153 -11 -7 -236 -33 -286 -34 -28 0 -35 5 -47 33 -21 51 -77
279 -70 286 14 14 325 37 325 24z m825 -569 c10 -41 15 -78 11 -81 -8 -8 -257
-44 -266 -38 -13 8 -43 146 -34 155 9 8 189 37 246 39 25 1 28 -3 43 -75z
m-303 -37 c11 -38 17 -74 15 -81 -5 -13 -290 -57 -312 -49 -10 3 -57 127 -56
148 0 10 266 54 310 52 21 -2 27 -11 43 -70z m-354 -53 c13 -42 20 -80 15 -84
-13 -11 -255 -42 -263 -33 -10 12 -50 127 -50 145 0 11 16 17 58 22 31 4 80
11 107 15 111 18 107 20 133 -65z m-309 -17 c34 -78 35 -74 -24 -91 -29 -9
-56 -16 -59 -16 -6 0 -36 96 -36 116 0 13 79 45 93 37 4 -2 15 -23 26 -46z
m1025 -135 c22 -93 26 -126 17 -131 -21 -13 -252 -44 -261 -35 -11 11 -60 209
-60 240 0 20 8 23 88 34 48 6 92 13 97 15 6 2 28 3 50 2 l40 -2 29 -123z
m-300 -44 c17 -70 27 -130 25 -133 -11 -10 -272 -46 -280 -38 -15 15 -98 248
-91 255 9 9 247 46 287 44 l30 -1 29 -127z m344 18 c10 -48 16 -89 12 -91 -6
-4 -31 92 -45 175 -12 70 14 4 33 -84z m-670 -64 c26 -71 41 -127 36 -132 -12
-12 -267 -50 -277 -41 -7 7 -77 241 -77 259 0 10 186 40 239 38 l34 -1 45
-123z m-749 -151 c12 -8 10 -16 -13 -51 -28 -42 -33 -43 -73 -7 -23 20 -30 47
-16 60 9 10 86 8 102 -2z m182 -20 c4 -3 13 -28 22 -54 l16 -48 -80 -59 c-45
-33 -84 -60 -88 -60 -5 0 -23 29 -40 65 -35 71 -35 75 16 143 24 33 25 33 86
26 34 -3 65 -9 68 -13z m54 -143 c2 -7 6 -29 10 -50 5 -36 5 -36 -32 -42 -110
-16 -133 -18 -133 -8 0 10 129 111 143 112 4 0 9 -6 12 -12z m1102 -20 c-3 -8
-6 -5 -6 6 -1 11 2 17 5 13 3 -3 4 -12 1 -19z m-140 -115 c4 -16 8 -56 8 -91
0 -73 -9 -84 -90 -107 -67 -20 -393 -65 -466 -65 -60 0 -101 11 -123 33 -43
43 -61 132 -28 140 70 20 93 18 158 -14 76 -38 160 -48 220 -29 24 8 61 36 98
74 49 51 67 63 110 72 87 20 105 18 113 -13z m-1439 -44 c4 -34 -22 -57 -43
-39 -16 13 -20 51 -8 64 16 16 48 1 51 -25z"/>
</g>
</svg>
